# xmcd
#
# Track frame offsets:
#	200
#	30617
#	50400
#	73815
#	104330
#	132682
#	150470
#	181802
#	210767
#	235370
#
# Disc length: 3289 seconds
#
# Revision: 1
# Processed by: cddbd v1.5.2PL0 Copyright (c) Steve Scherf et al.
# Submitted via: EasyCDDAExtractor 11.5.3.1
#
DISCID=850cd70a
DTITLE=LCD - Endorfun
DYEAR=1996
DGENRE=
TTITLE0=Endor Fun
TTITLE1=Elektronik
TTITLE2=Gear Boxing
TTITLE3=[untitled]
TTITLE4=Cry Baby
TTITLE5=Bank Robber
TTITLE6=Suprime Weirdness
TTITLE7=Think Smart
TTITLE8=Illuminator
TTITLE9=Infinite Mass
EXTD=
EXTT0=
EXTT1=
EXTT2=
EXTT3=
EXTT4=
EXTT5=
EXTT6=
EXTT7=
EXTT8=
EXTT9=
PLAYORDER=
